<svg width="79" height="77" viewBox="0 0 79 92" fill="none" xmlns="http://www.w3.org/2000/svg">
<path fill-rule="evenodd" clip-rule="evenodd" d="M70.2357 39.4021C70.4141 39.2726 70.628 39.2028 70.8475 39.2024C71.067 39.202 71.2812 39.271 71.46 39.3998C71.6389 39.5286 71.7734 39.7108 71.8449 39.9208C71.9163 40.1308 71.9211 40.3582 71.8585 40.5711C71.796 40.7839 71.6692 40.9717 71.496 41.1081C71.3227 41.2445 71.1117 41.3227 70.8923 41.3318C70.673 41.3408 70.4563 41.2803 70.2727 41.1586C70.089 41.0369 69.9476 40.8602 69.8681 40.6532C69.759 40.4368 69.7363 40.1862 69.8048 39.9533C69.8732 39.7204 70.0275 39.5231 70.2357 39.4021V39.4021ZM68.4561 34.0087C68.6426 33.6593 68.9326 33.3777 69.2853 33.2034C69.638 33.0292 70.0358 32.971 70.4229 33.0371C70.8099 33.1032 71.1669 33.2902 71.4436 33.5719C71.7203 33.8535 71.9029 34.2158 71.9658 34.6078C72.0287 34.9998 71.9687 35.4019 71.7943 35.7577C71.6199 36.1135 71.3398 36.4051 70.9933 36.5917C70.6468 36.7783 70.2512 36.8505 69.8621 36.7981C69.473 36.7457 69.1099 36.5714 68.8237 36.2996C68.485 36.0373 68.2583 35.654 68.19 35.2281C68.1216 34.8022 68.2168 34.3659 68.4561 34.0087V34.0087ZM65.5317 34.5497C64.88 34.4906 64.3954 34.0256 64.4455 33.5184C64.5111 33.2452 64.68 33.0089 64.9159 32.8603C65.1518 32.7117 65.4359 32.6627 65.7072 32.7238C66.3505 32.7829 66.8435 33.2479 66.7933 33.7551C66.7259 34.0272 66.5566 34.2621 66.3212 34.4104C66.0859 34.5586 65.8028 34.6086 65.5317 34.5497V34.5497ZM72.4833 44.3981C72.5801 44.3413 72.6907 44.313 72.8026 44.3163C72.9145 44.3196 73.0232 44.3545 73.1166 44.4169C73.21 44.4793 73.2843 44.5669 73.3312 44.6697C73.3781 44.7725 73.3957 44.8865 73.3821 44.9989C73.3684 45.1113 73.3241 45.2176 73.254 45.3059C73.1839 45.3942 73.0908 45.4609 72.9853 45.4986C72.8798 45.5363 72.7659 45.5435 72.6566 45.5193C72.5472 45.4952 72.4467 45.4406 72.3663 45.3618C72.2593 45.2169 72.2117 45.0358 72.2335 44.8562C72.2553 44.6766 72.3448 44.5125 72.4833 44.3981V44.3981ZM73.5027 38.041C73.721 37.9084 73.9748 37.8482 74.2287 37.8689C74.4825 37.8895 74.7236 37.9901 74.9181 38.1564C75.1126 38.3227 75.2508 38.5464 75.3133 38.7961C75.3758 39.0459 75.3595 39.3092 75.2666 39.5491C75.1738 39.789 75.0091 39.9935 74.7955 40.1339C74.582 40.2743 74.3304 40.3436 74.076 40.3321C73.8216 40.3205 73.5772 40.2287 73.377 40.0695C73.1767 39.9103 73.0308 39.6917 72.9596 39.4443C72.8542 39.1847 72.8518 38.8939 72.953 38.6325C73.0541 38.3711 73.251 38.1593 73.5027 38.041V38.041ZM52.8066 13.4074C54.227 15.0981 54.8703 17.9639 53.8009 22.5288C53.592 21.3115 52.9068 17.3975 52.0629 15.766L52.8066 13.4243V13.4074ZM49.1135 11.5984C45.6628 7.96335 40.0814 5.41038 31.7428 7.89572C31.7428 7.89572 37.0234 4.22688 43.2899 5.35965C46.1964 5.95726 48.8039 7.56653 50.6593 9.90766L49.1135 11.5984ZM42.7719 30.7795C46.3981 30.2892 51.1272 25.8679 51.1272 25.8679C51.0436 33.865 44.234 34.2623 42.7719 30.7795ZM42.6131 88.906C42.4433 88.8532 42.3008 88.735 42.2164 88.5768C42.132 88.4187 42.1124 88.2333 42.1619 88.0606C42.1552 87.9687 42.1692 87.8764 42.2029 87.7907C42.2365 87.7051 42.289 87.6283 42.3563 87.5661C42.4236 87.504 42.504 87.4581 42.5914 87.432C42.6788 87.4059 42.7709 87.4002 42.8608 87.4153C42.9506 87.4305 43.0359 87.4661 43.1102 87.5195C43.1845 87.5729 43.2458 87.6426 43.2896 87.7235C43.3333 87.8044 43.3583 87.8943 43.3627 87.9863C43.3671 88.0784 43.3508 88.1703 43.3149 88.2551C43.2481 88.6778 42.9306 88.9736 42.6131 88.9145V88.906ZM39.0872 83.1153C38.9423 83.2145 38.773 83.2707 38.5982 83.2774C38.4235 83.2842 38.2503 83.2412 38.0985 83.1535C37.9466 83.0658 37.8221 82.9367 37.739 82.781C37.656 82.6253 37.6177 82.4492 37.6285 82.2726C37.6394 82.096 37.6989 81.926 37.8004 81.7819C37.9019 81.6378 38.0412 81.5254 38.2027 81.4573C38.3641 81.3893 38.5411 81.3684 38.7137 81.397C38.8863 81.4255 39.0475 81.5025 39.1791 81.6191C39.3617 81.8304 39.4546 82.1061 39.4373 82.3863C39.4201 82.6665 39.2943 82.9285 39.0872 83.1153V83.1153ZM40.1399 86.6574C39.9759 86.6594 39.8154 86.6094 39.6809 86.5144C39.5464 86.4195 39.4446 86.2843 39.3899 86.1278C39.3352 85.9714 39.3303 85.8015 39.3759 85.6421C39.4214 85.4827 39.5152 85.3417 39.6439 85.2389C39.7727 85.1361 39.93 85.0767 40.0939 85.069C40.2577 85.0613 40.4198 85.1057 40.5575 85.1959C40.6951 85.2862 40.8014 85.4178 40.8614 85.5722C40.9214 85.7267 40.932 85.8963 40.8919 86.0572C40.8689 86.2368 40.7773 86.4001 40.6368 86.5123C40.4963 86.6245 40.3179 86.6765 40.1399 86.6574V86.6574ZM36.8563 79.2267C36.4646 79.2065 36.0889 79.0629 35.7818 78.8159C35.4748 78.569 35.2518 78.231 35.1441 77.8494C35.0364 77.4678 35.0494 77.0617 35.1812 76.6879C35.313 76.3141 35.5571 75.9914 35.8792 75.765C36.2014 75.5386 36.5854 75.4198 36.9776 75.4252C37.3698 75.4307 37.7505 75.5601 38.0664 75.7954C38.3823 76.0307 38.6175 76.3601 38.7391 76.7374C38.8607 77.1147 38.8626 77.521 38.7446 77.8995C38.6575 78.3232 38.4132 78.697 38.0619 78.9439C37.7106 79.1908 37.2791 79.292 36.8563 79.2267ZM36.9064 72.1595C36.9912 72.0031 37.1175 71.8738 37.2711 71.7862C37.4248 71.6987 37.5996 71.6564 37.7757 71.6642C37.9519 71.672 38.1224 71.7296 38.2679 71.8304C38.4134 71.9312 38.5281 72.0712 38.5989 72.2345C38.6698 72.3979 38.6941 72.5781 38.6689 72.7547C38.6438 72.9312 38.5703 73.0972 38.4568 73.2337C38.3432 73.3702 38.1942 73.4718 38.0265 73.5269C37.8588 73.5821 37.6792 73.5887 37.508 73.5459C37.2512 73.4369 37.0455 73.2323 36.9336 72.9743C36.8216 72.7163 36.8119 72.4246 36.9064 72.1595V72.1595ZM29.3365 25.5129C29.3365 25.5129 34.0238 30.2469 37.65 30.7372C36.1879 34.22 29.8713 34.5075 29.3365 25.5129V25.5129ZM55.1544 46.7905C55.3815 46.8519 55.5872 46.9763 55.7481 47.1497C55.9091 47.3231 56.019 47.5386 56.0654 47.7718C56.1118 48.005 56.0928 48.2466 56.0107 48.4695C55.9286 48.6924 55.7865 48.8877 55.6006 49.0332C55.4146 49.1788 55.1921 49.2689 54.9583 49.2933C54.7244 49.3178 54.4884 49.2757 54.277 49.1717C54.0655 49.0677 53.887 48.906 53.7615 48.7048C53.6361 48.5036 53.5687 48.271 53.5669 48.0331C53.6209 47.6583 53.8166 47.3193 54.1127 47.0876C54.4088 46.8558 54.7823 46.7493 55.1544 46.7905V46.7905ZM57.0761 53.1644C57.3555 53.1655 57.6274 53.2551 57.8539 53.4206C58.0803 53.5861 58.2498 53.8192 58.3386 54.0871C58.4273 54.3551 58.4309 54.6444 58.3488 54.9146C58.2667 55.1847 58.1031 55.422 57.8808 55.5932C57.6586 55.7644 57.3889 55.8608 57.1097 55.869C56.8305 55.8772 56.5557 55.7966 56.3241 55.6387C56.0924 55.4808 55.9155 55.2535 55.8181 54.9886C55.7207 54.7237 55.7077 54.4346 55.7811 54.1619C55.8267 53.8581 55.9873 53.5841 56.229 53.3979C56.4707 53.2118 56.7745 53.128 57.0761 53.1644V53.1644ZM58.2793 49.3857C58.5634 49.298 58.8683 49.3085 59.1459 49.4156C59.4234 49.5226 59.6578 49.7202 59.8121 49.9771C59.9663 50.2339 60.0316 50.5354 59.9976 50.834C59.9637 51.1326 59.8324 51.4112 59.6245 51.6259C59.3404 51.7136 59.0355 51.7031 58.7579 51.596C58.4804 51.4889 58.246 51.2914 58.0917 51.0345C57.9375 50.7777 57.8722 50.4762 57.9062 50.1776C57.9401 49.879 58.0714 49.6004 58.2793 49.3857V49.3857ZM24.2816 77.088C24.1642 77.2036 24.0141 77.2792 23.8522 77.3043C23.6903 77.3293 23.5247 77.3025 23.3785 77.2276C23.2324 77.1527 23.1131 77.0335 23.0373 76.8866C22.9615 76.7397 22.933 76.5725 22.9557 76.4083C22.9785 76.2442 23.0514 76.0914 23.1643 75.9713C23.2771 75.8512 23.4243 75.7698 23.5851 75.7385C23.746 75.7072 23.9125 75.7275 24.0613 75.7967C24.2102 75.8659 24.3339 75.9804 24.4153 76.1243C24.5205 76.2712 24.5653 76.4537 24.5404 76.6334C24.5154 76.8131 24.4227 76.976 24.2816 77.088V77.088ZM22.5437 68.9556C22.4718 68.7893 22.4665 68.6012 22.5288 68.431C22.5911 68.2607 22.7162 68.1215 22.8779 68.0427C22.9411 67.9722 23.0195 67.9175 23.1071 67.8828C23.1947 67.8482 23.289 67.8344 23.3827 67.8427C23.4764 67.8511 23.5669 67.8812 23.6472 67.9307C23.7274 67.9803 23.7953 68.048 23.8454 68.1285C23.8956 68.209 23.9267 68.3001 23.9362 68.3947C23.9458 68.4894 23.9336 68.585 23.9006 68.6741C23.8676 68.7632 23.8146 68.8434 23.7459 68.9083C23.6772 68.9733 23.5946 69.0213 23.5045 69.0486C23.3638 69.1624 23.1848 69.2164 23.0055 69.199C22.8261 69.1817 22.6605 69.0944 22.5437 68.9556ZM22.1092 73.3684C21.8781 73.5939 21.5831 73.7405 21.2654 73.7877C20.9478 73.835 20.6235 73.7804 20.3381 73.6317C20.0527 73.483 19.8205 73.2476 19.674 72.9586C19.5275 72.6696 19.4741 72.3414 19.5213 72.0201C19.5685 71.6988 19.7139 71.4006 19.9372 71.1671C20.1604 70.9337 20.4503 70.7769 20.7661 70.7186C21.0819 70.6603 21.4079 70.7035 21.6982 70.8422C21.9885 70.9808 22.2287 71.208 22.3849 71.4917C22.5894 71.7793 22.675 72.1362 22.6235 72.4867C22.572 72.8371 22.3875 73.1534 22.1092 73.3684ZM19.4689 68.5499C19.2223 68.6248 18.9587 68.6188 18.7156 68.5328C18.4726 68.4469 18.2627 68.2853 18.1159 68.0713C17.9692 67.8573 17.8931 67.6018 17.8986 67.3414C17.9041 67.0809 17.9909 66.829 18.1466 66.6215C18.3023 66.414 18.5188 66.2617 18.7652 66.1863C19.0117 66.111 19.2754 66.1164 19.5186 66.2019C19.7617 66.2874 19.972 66.4485 20.1191 66.6622C20.2663 66.876 20.3429 67.1313 20.3379 67.3917C20.3691 67.6722 20.2916 67.9539 20.1218 68.1778C19.952 68.4016 19.703 68.5502 19.4271 68.5921L19.4689 68.5499ZM22.2011 62.0829C22.2979 62.0261 22.4085 61.9978 22.5204 62.0011C22.6323 62.0044 22.741 62.0393 22.8344 62.1017C22.9278 62.1641 23.0021 62.2517 23.049 62.3545C23.0959 62.4573 23.1135 62.5713 23.0999 62.6837C23.0862 62.7961 23.0418 62.9024 22.9718 62.9907C22.9017 63.079 22.8086 63.1457 22.7031 63.1834C22.5975 63.2211 22.4837 63.2283 22.3744 63.2041C22.265 63.18 22.1645 63.1254 22.0841 63.0466C21.9771 62.9017 21.9294 62.7206 21.9512 62.541C21.973 62.3614 22.0626 62.1973 22.2011 62.0829V62.0829ZM11.7319 54.7114C11.654 54.8448 11.5414 54.954 11.4064 55.0271C11.2714 55.1002 11.1191 55.1343 10.9662 55.1257C10.8133 55.1171 10.6656 55.0662 10.5394 54.9785C10.4132 54.8908 10.3132 54.7696 10.2504 54.6283C10.1876 54.487 10.1644 54.331 10.1833 54.1772C10.2022 54.0235 10.2625 53.8779 10.3576 53.7565C10.4528 53.6351 10.579 53.5425 10.7227 53.4887C10.8663 53.435 11.0218 53.4222 11.1721 53.4519C11.4094 53.5465 11.6007 53.7311 11.7053 53.9664C11.8098 54.2017 11.8194 54.4691 11.7319 54.7114V54.7114ZM6.81898 55.5568C5.85812 55.7766 4.85549 54.9312 4.57976 53.6801C4.30404 52.429 4.84713 51.2286 5.79963 51.0088C6.75214 50.789 7.76313 51.6343 8.03886 52.8855C8.31458 54.1366 7.77149 55.337 6.81898 55.5568ZM5.14792 47.1032C5.25923 46.9051 5.42327 46.7426 5.62138 46.6341C5.81949 46.5257 6.04371 46.4757 6.26853 46.4898C6.49335 46.5039 6.70973 46.5816 6.89305 46.7141C7.07637 46.8465 7.21927 47.0283 7.30548 47.2389C7.39169 47.4494 7.41776 47.6802 7.38071 47.905C7.34366 48.1298 7.24498 48.3395 7.0959 48.5104C6.94683 48.6812 6.75335 48.8063 6.53748 48.8714C6.32161 48.9365 6.09202 48.9389 5.87483 48.8785C5.55046 48.7349 5.2936 48.4699 5.15809 48.1389C5.02258 47.808 5.01893 47.4368 5.14792 47.1032V47.1032ZM76.0176 54.1112C77.1372 54.6692 76.3602 59.8512 72.4332 59.4877C68.3725 59.0988 70.4112 55.7935 73.7784 50.6791C82.0334 38.1679 70.9209 28.0151 61.8136 31.0584C58.6503 32.334 55.7512 34.1978 53.2661 36.5532C64.7964 17.5835 56.8255 -0.0506121 40.0564 0.000109152H39.7807C37.7002 0.0423769 21.917 1.50484 21.4658 19.4433C21.2737 26.3498 24.432 30.7118 27.1224 36.7899C30.3559 44.1276 29.6958 52.1923 19.4438 50.882C22.1677 50.3663 23.9223 49.335 25.0085 48.0585C23.7218 47.9401 22.2847 47.061 20.9562 45.2604C19.1431 42.8004 18.9425 41.8113 16.979 40.687C8.87439 36.0545 0.569215 44.2375 2.64969 53.1729C4.94739 63.0128 12.2249 63.7905 9.57623 69.2346C6.9276 74.6787 -1.77862 70.6294 2.44916 63.2157C-1.14362 66.2421 -0.174406 71.255 1.50501 73.7995C4.0116 77.5952 12.1831 78.6519 15.709 73.5713C13.3528 67.9581 10.8128 58.152 20.7222 56.0471C32.5115 53.5533 28.9856 54.0098 31.3585 51.702C29.888 57.89 21.7833 54.9397 18.4329 59.1834C14.6479 63.9681 17.2297 70.528 17.3634 70.8577C18.6584 73.7911 21.1734 76.9865 25.1589 80.1566C26.3704 81.5852 27.4232 83.2844 27.0806 85.4062C26.5793 88.5171 21.6246 88.5932 21.4825 84.4679C21.0481 86.1586 21.2569 89.3371 24.8247 90.0726C28.3924 90.8081 33.464 85.6091 32.1355 80.3257C30.8071 75.0422 30.2556 74.5096 30.4144 71.3903C30.7151 65.4728 37.0986 62.3027 39.2125 62.2182C28.8268 68.1864 32.5951 92 48.6373 92C62.0058 92 61.1702 76.3779 53.2243 77.536C48.2111 78.2545 48.2947 81.7628 48.2947 81.7628C49.6392 81.3 51.0816 81.2096 52.4724 81.5007C55.4218 82.4137 55.873 86.446 52.6812 88.1875C48.7459 90.3347 42.3541 86.4968 47.2754 77.4092C47.7348 76.7013 48.2983 76.0685 48.9464 75.5325C47.0915 75.1436 44.4429 73.7573 43.716 69.0994C42.7969 63.1819 46.3813 58.4141 44.1087 58.2704C45.7046 54.7368 50.5924 53.976 48.4702 58.5493C47.7098 60.1724 40.0564 69.7503 49.7402 74.6872C57.3602 76.809 69.0743 68.4653 69.7428 75.1944C69.2331 78.0094 66.2419 79.2182 64.7881 78.5758C65.7322 79.0661 68.7986 80.3848 71.3637 78.1108C76.8615 73.2331 73.4191 65.0078 64.7547 66.4027C54.4191 68.0934 53.4917 63.6468 58.1707 59.4792C62.0392 56.0302 63.0752 52.4712 62.3985 49.4787C62.3276 49.3928 62.2711 49.2957 62.2313 49.1913C61.1702 45.4294 54.8118 39.047 45.2534 47.695C46.5568 46.1903 49.8404 43.0286 54.2938 42.3608C57.1095 41.9466 60.8026 42.6482 62.8664 44.8969C64.3202 42.141 66.15 43.2062 66.551 44.7616C67.0106 46.5538 60.7023 56.4275 64.4789 60.5444C68.2555 64.6613 75.1152 63.1988 77.2458 60.4514C80.0449 56.9009 77.555 54.7114 76.0092 54.1197L76.0176 54.1112Z" fill="white"/>
</svg>
