<svg width="1920" height="1719" viewBox="0 0 1920 1719" fill="none" xmlns="http://www.w3.org/2000/svg">
<path d="M-182.836 1488.99L-182.836 980.992C-182.836 980.671 -182.961 980.572 -182.701 980.384C-173.901 974.029 264.195 658.767 659.664 588.644C1454.61 447.689 2060.16 725.644 2060.16 725.644L2060.16 884.144C2060.16 884.144 1047.5 654.5 776.5 1018C433.126 1478.58 -161.157 1489.74 -182.258 1489.99C-182.813 1490 -182.836 1489.55 -182.836 1488.99Z" fill="#0E0F1A"/>
<path d="M1007.16 64.9813C1535.99 37.4075 2080.41 157.726 2096.86 161.396C2097.32 161.497 2097.24 161.813 2097.24 162.281L2097.24 770.877C2097.24 771.617 2096.86 772.295 2096.2 771.974C2066.11 757.476 1392.42 438.409 818.5 652C231.666 870.396 289.435 1079.76 -248.894 1013.59C-249.396 1013.53 -249.803 1013.1 -249.803 1012.6L-249.803 378.231C-249.803 377.925 -249.897 377.818 -249.655 377.63C-241.576 371.357 97.0132 112.438 1007.16 64.9813Z" fill="#121423"/>
<ellipse rx="145.282" ry="40.797" transform="matrix(0.999924 -0.0123358 -0.0123358 -0.999924 1380.37 804.872)" fill="#EE6D8F"/>
<ellipse rx="155.878" ry="47.6346" transform="matrix(0.947698 -0.319169 -0.319169 -0.947698 1020.93 859.897)" fill="#EE6D8F"/>
<ellipse rx="155.878" ry="62.7427" transform="matrix(0.744706 -0.667393 -0.667393 -0.744706 697.958 1086.76)" fill="#EE6D8F"/>
<ellipse rx="146.065" ry="77.7396" transform="matrix(0.873721 -0.486427 -0.486427 -0.873721 708.314 832.179)" fill="#EE6D8F"/>
<ellipse rx="107.8" ry="57.3738" transform="matrix(0.969572 -0.244806 -0.244806 -0.969572 1007.57 693.018)" fill="#EE6D8F"/>
<ellipse rx="107.8" ry="41.9675" transform="matrix(0.998358 0.0572891 0.0572891 -0.998358 1308.68 657.399)" fill="#EE6D8F"/>
<ellipse rx="94.3666" ry="33.9997" transform="matrix(0.992165 0.124936 0.124936 -0.992165 1611.7 694.302)" fill="#EE6D8F"/>
<ellipse rx="190.377" ry="101.324" transform="matrix(0.873329 -0.487131 -0.487131 -0.873329 354.62 1050.23)" fill="#EE6D8F"/>
<ellipse rx="215.546" ry="114.719" transform="matrix(0.949906 -0.312537 -0.312537 -0.949906 -89.869 1186.97)" fill="#EE6D8F"/>
<ellipse rx="155.878" ry="75.9649" transform="matrix(0.870328 -0.492473 -0.492473 -0.870328 395.066 1310.22)" fill="#EE6D8F"/>
<ellipse rx="155.878" ry="70.9433" transform="matrix(0.987651 -0.156668 -0.156668 -0.987651 -22.3555 1426.65)" fill="#EE6D8F"/>
<ellipse rx="156.63" ry="44.8126" transform="matrix(0.993642 0.112584 0.112584 -0.993642 1777.87 830.029)" fill="#EE6D8F"/>
</svg>
